<svg xmlns="http://www.w3.org/2000/svg" viewBox="0 0 1000 558"><defs><style>.cls-1{fill:none;stroke:#fff;stroke-linejoin:round;stroke-width:15px;}.cls-2{fill:#ff7043;}.cls-3{fill:#ffca28;}.cls-4{fill:#8d6e63;}</style></defs><g id="Outline"><polygon class="cls-1" points="738.98 334.33 738.92 326.27 738.81 312 756.98 311.67 766.98 333.17 778.81 332.17 776.81 284.83 713.98 306.83 714.61 314.79 718.98 369.83 761.48 373.5 766.81 405 730.48 413 736.81 429 774.65 430 787.15 411.83 782.31 363.5 738.98 334.33"/><polygon class="cls-1" points="613.81 365.11 654.24 379.51 654.37 379.56 650.81 415.44 624.15 414.56 626.15 390 608.37 393.44 613.92 431.78 653.15 439 669.92 424.44 676.36 373.22 676.37 373.11 639.15 335.22 643.26 311.33 662.81 315.44 666.81 337.22 679.48 340.67 688.7 290.56 619.59 300.56 613.81 365.11"/><polygon class="cls-1" points="539.92 361.56 531.72 361.56 526.81 361.56 526.35 360.15 504.37 293.11 478.37 288.44 496.59 374.44 496.88 374.63 511.7 384.22 520.48 426.44 502.37 430.89 505.92 444 559.92 444 560.15 428.67 546.15 428.67 545.48 390 548.19 388.47 568.37 377.11 584.81 277.33 553.92 282.89 539.92 361.56"/><path class="cls-1" d="M453,362.22,405.1,350.4l-1.62-.4,31.33-6.89-6.44-71.78-91.78,31.11-2.67,13.78,22-2.22,5.19,39.9.74,5.67,11.19,86,86-18.67-.06-.69Zm-40.31-58.14,1.92,21.25L382,333.67l-1.08-22.09ZM393.65,416.25l-5.59-38.69-.75-5.23,32.17-.5,6.1,31.46,1.07,5.54Z"/><path class="cls-1" d="M302,286h-59.5L192.15,426.33l-25.5-3.66-5.84,15L203.65,451l30.16-41.67,10.58,2.07,26.92,5.27,5.17,36.66h47.67V435.67l-20.84-.84Zm-30.17,94.22L254.9,376l-9.53-2.36,15-50.67,10.07.72,7,.5Z"/><polygon class="cls-1" points="870.59 241.56 869.92 231.22 863.7 230.67 869.7 161.11 853.26 159.67 850.59 204.33 830.7 163 806.26 161.67 806.7 170.44 816.15 172.56 815.81 241.56 832.81 233.78 830.26 198.33 850.15 241.56 870.59 241.56"/><polygon class="cls-1" points="786.65 225.17 782.98 171.33 791.23 170.42 788.56 156.92 752.73 166 754.73 176.75 767.48 175.83 771.15 226.75 761.81 227.67 764.98 234.42 799.65 238.08 797.4 229 786.65 225.17"/><polygon class="cls-1" points="652.78 214.25 647.31 214.83 646.48 190.67 652.45 190.26 678.31 188.5 676.65 168.67 649.7 166.34 639.98 165.5 639.15 142.33 644.96 142.2 683.15 141.33 684.31 115.17 636.92 110.77 608.98 108.17 625.15 257.67 647.33 250.91 707.15 232.67 702.15 209 652.78 214.25"/><polygon class="cls-1" points="493.48 249.78 507.26 171.94 526.58 214.68 541.04 246.67 578.37 253.56 581.92 238.22 566.37 235.56 571.48 107.33 540.59 120.89 543.04 184.22 540.32 177.67 509.92 104.44 472.59 105.78 473.92 120.22 485.7 124.44 467.04 247.78 493.48 249.78"/><path class="cls-1" d="M417.81,222.56l-25.44-1q3-19.86,5.93-39.71,4.5-30.15,9-60.3l16.95-.44-2.67-13.22L356.92,88.78h0l1.23,15.44L377,115.89l-6.75,76.91h0l-2.7,30.76-18.44-.78L345,243.89h72.77Z"/><path class="cls-1" d="M205.7,253.33l-15.78-.89-11.77-104L227,206.89l34.23-55.08.89,93.19,35.22-3L294.15,98.89l-37.78-4.33L217.48,152,185.92,92.67l-60.44,14.22,7.11,15.78,16-4.45,10.22,135.11L141,258l1.78,13.33,63.78-2Z"/><polygon class="cls-2" points="787.15 411.83 774.65 430 736.81 429 730.48 413 766.81 405 761.48 373.5 718.98 369.83 714.61 314.79 713.98 306.83 776.81 284.83 778.81 332.17 766.98 333.17 756.98 311.67 738.81 312 738.92 326.27 738.98 334.33 782.31 363.5 787.15 411.83"/><polygon class="cls-3" points="778.81 332.17 766.98 333.17 756.98 311.67 738.81 312 738.92 326.27 714.61 314.79 713.98 306.83 776.81 284.83 778.81 332.17"/><polygon class="cls-2" points="643.26 311.33 639.15 335.22 676.37 373.11 676.36 373.22 669.92 424.44 653.15 439 613.92 431.78 608.37 393.44 626.15 390 624.15 414.56 650.81 415.44 654.37 379.56 654.24 379.51 613.81 365.11 619.59 300.56 688.7 290.56 679.48 340.67 666.81 337.22 662.81 315.44 643.26 311.33"/><polygon class="cls-3" points="676.36 373.22 669.92 424.44 653.15 439 613.92 431.78 608.37 393.44 626.15 390 624.15 414.56 650.81 415.44 654.37 379.56 654.24 379.51 676.36 373.22"/><polygon class="cls-2" points="548.19 388.47 545.48 390 546.15 428.67 560.15 428.67 559.92 444 505.92 444 502.37 430.89 520.48 426.44 511.7 384.22 496.88 374.63 496.59 374.44 478.37 288.44 504.37 293.11 526.35 360.15 526.81 361.56 539.92 361.56 553.92 282.89 584.81 277.33 568.37 377.11 548.19 388.47"/><path class="cls-4" d="M560.15,428.67,559.92,444h-54l-3.55-13.11,18.11-4.45-8.78-42.22-14.82-9.59c9.7-4.71,23.2-11.38,29.47-14.48l.46,1.41h4.91l16.47,26.91L545.48,390l.67,38.67Z"/><path class="cls-3" d="M459,426.2l-5.94-64L405.1,350.4l-1.62-.4,31.33-6.89-6.44-71.78-91.78,31.11-2.67,13.78,22-2.22,5.19,39.9.74,5.67,11.19,86,86-18.67ZM412.73,304.08l1.92,21.25L382,333.67l-1.08-22.09ZM393.65,416.25l-5.59-38.69-.75-5.23,32.17-.5,6.1,31.46,1.07,5.54Z"/><polygon class="cls-2" points="458.98 426.2 425.58 403.29 419.48 371.83 387.31 372.33 388.06 377.56 361.85 359.57 361.11 353.9 405.1 350.4 453.04 362.22 458.98 426.2"/><path class="cls-2" d="M303.31,434.83,302,286h-59.5L192.15,426.33l-25.5-3.66-5.84,15L203.65,451l30.16-41.67,10.58,2.07,26.92,5.27,5.17,36.66h47.67V435.67Zm-31.5-54.61L254.9,376l-9.53-2.36,15-50.67,10.07.72,7,.5Z"/><polygon class="cls-3" points="281.65 286 270.44 323.72 260.37 323 245.37 373.67 254.9 376.03 244.39 411.4 233.81 409.33 203.65 451 160.81 437.67 166.65 422.67 192.15 426.33 242.48 286 281.65 286"/><polygon class="cls-4" points="815.81 241.56 832.81 233.78 830.26 198.33 850.15 241.56 870.59 241.56 869.92 231.22 863.7 230.67 869.7 161.11 853.26 159.67 850.59 204.33 830.7 163 806.26 161.67 806.7 170.44 816.15 172.56 815.81 241.56"/><polygon class="cls-4" points="764.98 234.42 761.81 227.67 771.15 226.75 767.48 175.83 754.73 176.75 752.73 166 788.56 156.92 791.23 170.42 782.98 171.33 786.65 225.17 797.4 229 799.65 238.08 764.98 234.42"/><polygon class="cls-2" points="707.15 232.67 647.33 250.91 625.15 257.67 608.98 108.17 636.92 110.77 684.31 115.17 683.15 141.33 644.96 142.2 639.15 142.33 639.98 165.5 649.7 166.34 676.65 168.67 678.31 188.5 652.45 190.26 646.48 190.67 647.31 214.83 652.78 214.25 702.15 209 707.15 232.67"/><polygon class="cls-3" points="652.78 214.25 647.33 250.91 625.15 257.67 608.98 108.17 636.92 110.77 644.96 142.2 639.15 142.33 639.98 165.5 649.7 166.34 652.45 190.26 646.48 190.67 647.31 214.83 652.78 214.25"/><polygon class="cls-3" points="581.92 238.22 578.37 253.56 541.04 246.67 526.58 214.68 507.26 171.94 493.48 249.78 467.04 247.78 485.7 124.44 473.92 120.22 472.59 105.78 509.92 104.44 540.32 177.67 543.04 184.22 540.59 120.89 571.48 107.33 566.37 235.56 581.92 238.22"/><polygon class="cls-2" points="540.32 177.67 526.58 214.68 507.26 171.94 493.48 249.78 467.04 247.78 485.7 124.44 473.92 120.22 472.59 105.78 509.92 104.44 540.32 177.67"/><path class="cls-2" d="M392.37,221.56l25.44,1v21.33H345l4.11-21.11,18.44.78,2.7-30.76L377,115.89l-18.89-11.67-1.23-15.44,64.67,19.11,2.67,13.22-16.95.44q-4.5,30.15-9,60.3Q395.33,201.7,392.37,221.56Z"/><path class="cls-4" d="M424.26,121.11l-16.95.44q-4.5,30.15-9,60.3l-28,11L377,115.89l-18.89-11.67-1.23-15.44,64.67,19.11Z"/><polygon class="cls-2" points="142.81 271.33 141.03 258 158.81 253.33 148.59 118.22 132.59 122.67 125.48 106.89 185.92 92.67 217.48 152 227.03 206.89 178.15 148.44 189.92 252.44 205.7 253.33 206.59 269.33 142.81 271.33"/><path class="cls-2" d="M262.15,245l35.22-3L294.15,98.89q-16.45,26.46-32.89,52.92Q261.71,198.4,262.15,245Z"/><polygon class="cls-3" points="256.37 94.56 294.15 98.89 227.03 206.89 217.48 152 256.37 94.56"/></g></svg>